{"title":"Frozen.2013.WEBRip.480p.x264.AAC-VYTO [P2PDL]","uid":9664055,"size":392709203,"categoryP":"video","categoryS":"movies","magnet":"?xt=urn:btih:ef556c4f3013dae9ffdcb73b5bea5870868a1d28&amp;dn=Frozen.2013.WEBRip.480p.x264.AAC-VYTO+%5BP2PDL%5D&amp;tr=udp%3A%2F%2Ftracker.openbittorrent.com%3A80&amp;tr=udp%3A%2F%2Fopen.demonii.com%3A1337&amp;tr=udp%3A%2F%2Ftracker.coppersurfer.tk%3A6969&amp;tr=udp%3A%2F%2Fexodus.desync.com%3A6969","seeders":7,"leechers":0,"uploader":"ValidusVyto","files":-1,"time":1393341222,"description":"Frozen.2013.WEBRip.480p.x264.AAC-VYTO\n\n\nGenre: Animation | Adventure | Comedy  &lt;a href=&quot;\nhttp://www.imdb.com/title/tt2294629/&quot; rel=&quot;nofollow&quot; target=&quot;_NEW&quot;&gt;\nhttp://www.imdb.com/title/tt2294629/&lt;/a&gt;\n\n\nFormat                                   : MPEG-4\nFormat profile                           : Base Media\nDuration                                 : 1h 42mn\nOverall bit rate mode                    : Variable\nOverall bit rate                         : 505 Kbps\n\n\nFormat                                   : AVC\nFormat profile                           : &lt;a class=&quot;__cf_email__&quot; href=&quot;/cdn-cgi/l/email-protection&quot; data-cfemail=&quot;a8e0c1cfc0e8e49c8699&quot;&gt;[email&amp;#160;protected]&lt;/a&gt;&lt;script cf-hash='f9e31' type=&quot;text/javascript&quot;&gt;\n/* &lt;![CDATA[ */!function(){try{var t=&quot;currentScript&quot;in document?document.currentScript:function(){for(var t=document.getElementsByTagName(&quot;script&quot;),e=t.length;e--;)if(t[e].getAttribute(&quot;cf-hash&quot;))return t[e]}();if(t&amp;&amp;t.previousSibling){var e,r,n,i,c=t.previousSibling,a=c.getAttribute(&quot;data-cfemail&quot;);if(a){for(e=&quot;&quot;,r=parseInt(a.substr(0,2),16),n=2;a.length-n;n+=2)i=parseInt(a.substr(n,2),16)^r,e+=String.fromCharCode(i);e=document.createTextNode(e),c.parentNode.replaceChild(e,c)}}}catch(u){}}();/* ]]&gt; */&lt;/script&gt;\nBit rate                                 : 460 Kbps\nWidth                                    : 720 pixels\nHeight                                   : 304 pixels\nDisplay aspect ratio                     : 2.25:1\nFrame rate mode                          : Variable\nFrame rate                               : 23.976 fps\nBit depth                                : 8 bits\nStream size                              : 336 MiB (91%)\nWriting library                          : x264 core 142 r2389 956c8d8\n\nAudio\nFormat                                   : AAC\nBit rate mode                            : Variable\nBit rate                                 : 40.0 Kbps\nChannel(s)                               : 2 channels\nChannel positions                        : Front: L R\nSampling rate                            : 48.0 KHz\nStream size                              : 29.2 MiB (8%)\nLanguage                                 : English\n\nSubtitle                                 : Yes (English)\n &lt;a href=&quot;\nhttp://ultraimg.com/images/TIWUF.png&quot; rel=&quot;nofollow&quot; target=&quot;_NEW&quot;&gt;\nhttp://ultraimg.com/images/TIWUF.png&lt;/a&gt; &lt;a href=&quot;\nhttp://ultraimg.com/images/qHPxV.png&quot; rel=&quot;nofollow&quot; target=&quot;_NEW&quot;&gt;\nhttp://ultraimg.com/images/qHPxV.png&lt;/a&gt; &lt;a href=&quot;\nhttp://ultraimg.com/images/Pyisa.png&quot; rel=&quot;nofollow&quot; target=&quot;_NEW&quot;&gt;\nhttp://ultraimg.com/images/Pyisa.png&lt;/a&gt; &lt;a href=&quot;\nhttp://ultraimg.com/images/yUHm.png&quot; rel=&quot;nofollow&quot; target=&quot;_NEW&quot;&gt;\nhttp://ultraimg.com/images/yUHm.png&lt;/a&gt; &lt;a href=&quot;\nhttp://ultraimg.com/images/btw2d.png&quot; rel=&quot;nofollow&quot; target=&quot;_NEW&quot;&gt;\nhttp://ultraimg.com/images/btw2d.png&lt;/a&gt; &lt;a href=&quot;\nhttp://ultraimg.com/images/j1kCX.png&quot; rel=&quot;nofollow&quot; target=&quot;_NEW&quot;&gt;\nhttp://ultraimg.com/images/j1kCX.png&lt;/a&gt;\n\n----------------------------------------------------------------------------------------------------\n\n\nRecommend to you to use latest version of VLC player. Install K-Lite Codec Pack or shark007 codecs\nin case of any kind of problem in playback (For non-VLC Media Player users). Alternatively, install\nCore AVC codecs, the fastest decoder that there is coupled with Community Center Codec Pack and play\non Windows Media Player Classic. Check sample to be sure.\nEnjoy!\n\nEncoder Notes:Looking For Early Access To Anything You Can Provide DVDScr, R5, DVDR, BluRay, Direct\nAudio, Music Releases and Seedboxes. We require dedicated servers, so as to do more \nand fast releases of movies.\n\nFor more awesome downloads, visit P2PDL torrent community, find us :P","torrent":{"xt":"urn:btih:ef556c4f3013dae9ffdcb73b5bea5870868a1d28","amp;dn":"Frozen.2013.WEBRip.480p.x264.AAC-VYTO+%5BP2PDL%5D","amp;tr":["udp%3A%2F%2Ftracker.openbittorrent.com%3A80","udp%3A%2F%2Fopen.demonii.com%3A1337","udp%3A%2F%2Ftracker.coppersurfer.tk%3A6969","udp%3A%2F%2Fexodus.desync.com%3A6969"],"infoHash":"ef556c4f3013dae9ffdcb73b5bea5870868a1d28","infoHashBuffer":{"type":"Buffer","data":[239,85,108,79,48,19,218,233,255,220,183,59,91,234,88,112,134,138,29,40]},"announce":[],"urlList":[]}}